# xmcd
#
# Track frame offsets:
#	150
#	15104
#	31020
#	47910
#	69231
#	82972
#	99221
#	118675
#	136799
#	151823
#	171152
#	187254
#	205008
#
# Disc length: 3016 seconds
#
# Revision: 0
# Processed by: cddbd v1.5.2PL0 Copyright (c) Steve Scherf et al.
# Submitted via: EasyCDDAExtractor 10.5.1.1
#
DISCID=940bc60d
DTITLE=Carrie Underwood - Carnival Ride
DYEAR=2007
DGENRE=Country
TTITLE0=Flat On The Floor
TTITLE1=All-American Girl
TTITLE2=So Small
TTITLE3=Just A Dream
TTITLE4=Get Out Of This Town
TTITLE5=Crazy Dreams
TTITLE6=I Know You Won't
TTITLE7=Last Name
TTITLE8=You Won't Find This
TTITLE9=I Told You So
TTITLE10=The More Boys I Meet
TTITLE11=Twisted
TTITLE12=Wheel Of The World
EXTD=
EXTT0=
EXTT1=
EXTT2=
EXTT3=
EXTT4=
EXTT5=
EXTT6=
EXTT7=
EXTT8=
EXTT9=
EXTT10=
EXTT11=
EXTT12=
PLAYORDER=
